<svg width="300" height="190" viewBox="0 0 300 190" fill="none" xmlns="http://www.w3.org/2000/svg"><style>.header { font: 600 18px "Segoe UI", Ubuntu, Sans-Serif; fill: #70a5fd; } .lang-name { font: 400 11px "Segoe UI", Ubuntu, Sans-Serif; fill: #38bdae; }</style><rect x="0.5" y="0.5" rx="4.5" height="99%" width="299" fill="#1a1b27"/><g transform="translate(25, 35)"><text x="0" y="0" class="header">Most Used Languages</text></g><g transform="translate(0, 55)"><svg x="25"><mask id="rect-mask"><rect x="0" y="0" width="250" height="8" fill="white" rx="5"/></mask><rect mask="url(#rect-mask)" x="0.00" y="0" width="201.57" height="8" fill="#3178c6"/><rect mask="url(#rect-mask)" x="201.57" y="0" width="20.37" height="8" fill="#38bdae"/><rect mask="url(#rect-mask)" x="221.94" y="0" width="8.24" height="8" fill="#f1e05a"/><rect mask="url(#rect-mask)" x="230.18" y="0" width="5.82" height="8" fill="#e34c26"/><rect mask="url(#rect-mask)" x="236.00" y="0" width="5.56" height="8" fill="#3572A5"/><rect mask="url(#rect-mask)" x="241.56" y="0" width="4.19" height="8" fill="#b07219"/><g transform="translate(0, 25)"><g transform="translate(0, 0)"><g transform="translate(0, 0)"><circle cx="5" cy="6" r="5" fill="#3178c6"/><text x="15" y="10" class="lang-name">TypeScript 80.63%</text></g><g transform="translate(0, 25)"><circle cx="5" cy="6" r="5" fill="#38bdae"/><text x="15" y="10" class="lang-name">Dart 8.15%</text></g><g transform="translate(0, 50)"><circle cx="5" cy="6" r="5" fill="#f1e05a"/><text x="15" y="10" class="lang-name">JavaScript 3.30%</text></g></g><g transform="translate(140, 0)"><g transform="translate(0, 0)"><circle cx="5" cy="6" r="5" fill="#e34c26"/><text x="15" y="10" class="lang-name">HTML 2.33%</text></g><g transform="translate(0, 25)"><circle cx="5" cy="6" r="5" fill="#3572A5"/><text x="15" y="10" class="lang-name">Python 2.22%</text></g><g transform="translate(0, 50)"><circle cx="5" cy="6" r="5" fill="#b07219"/><text x="15" y="10" class="lang-name">Java 1.67%</text></g></g></g></svg></g></svg>