<svg width="300" height="190" viewBox="0 0 300 190" fill="none" xmlns="http://www.w3.org/2000/svg"><style>.header { font: 600 18px "Segoe UI", Ubuntu, Sans-Serif; fill: #70a5fd; } .lang-name { font: 400 11px "Segoe UI", Ubuntu, Sans-Serif; fill: #38bdae; }</style><rect x="0.5" y="0.5" rx="4.5" height="99%" width="299" fill="#1a1b27"/><g transform="translate(25, 35)"><text x="0" y="0" class="header">Most Used Languages</text></g><g transform="translate(0, 55)"><svg x="25"><mask id="rect-mask"><rect x="0" y="0" width="250" height="8" fill="white" rx="5"/></mask><rect mask="url(#rect-mask)" x="0.00" y="0" width="222.50" height="8" fill="#3178c6"/><rect mask="url(#rect-mask)" x="222.50" y="0" width="11.49" height="8" fill="#f1e05a"/><rect mask="url(#rect-mask)" x="233.99" y="0" width="5.96" height="8" fill="#b07219"/><rect mask="url(#rect-mask)" x="239.95" y="0" width="3.66" height="8" fill="#663399"/><rect mask="url(#rect-mask)" x="243.61" y="0" width="3.21" height="8" fill="#e34c26"/><rect mask="url(#rect-mask)" x="246.83" y="0" width="2.26" height="8" fill="#3572A5"/><g transform="translate(0, 25)"><g transform="translate(0, 0)"><g transform="translate(0, 0)"><circle cx="5" cy="6" r="5" fill="#3178c6"/><text x="15" y="10" class="lang-name">TypeScript 89.00%</text></g><g transform="translate(0, 25)"><circle cx="5" cy="6" r="5" fill="#f1e05a"/><text x="15" y="10" class="lang-name">JavaScript 4.60%</text></g><g transform="translate(0, 50)"><circle cx="5" cy="6" r="5" fill="#b07219"/><text x="15" y="10" class="lang-name">Java 2.38%</text></g></g><g transform="translate(140, 0)"><g transform="translate(0, 0)"><circle cx="5" cy="6" r="5" fill="#663399"/><text x="15" y="10" class="lang-name">CSS 1.46%</text></g><g transform="translate(0, 25)"><circle cx="5" cy="6" r="5" fill="#e34c26"/><text x="15" y="10" class="lang-name">HTML 1.29%</text></g><g transform="translate(0, 50)"><circle cx="5" cy="6" r="5" fill="#3572A5"/><text x="15" y="10" class="lang-name">Python 0.90%</text></g></g></g></svg></g></svg>